<svg id="Capa_1" enable-background="new 0 0 512 512"  fill="#fff" height="512" viewBox="0 0 512 512" width="512" xmlns="http://www.w3.org/2000/svg"><g><path d="m504.53 281.897-67.521-60.58v-70.32h2.5c6.893 0 12.5-5.608 12.5-12.5v-20c0-6.893-5.608-12.5-12.5-12.5h-58.001c-6.893 0-12.5 5.608-12.5 12.5v20c0 6.893 5.608 12.5 12.5 12.5h2.5v22.768l-60.914-54.652c-13.437-12.056-32.033-16.268-49.088-11.563v-12.053c0-6.893-5.608-12.5-12.5-12.5-37.22 0-67.501-30.281-67.501-67.501 0-6.893-5.608-12.5-12.5-12.5h-89.003c-6.893 0-12.5 5.608-12.5 12.5 0 37.22-30.281 67.501-67.501 67.501-6.893 0-12.5 5.608-12.5 12.5v57.501c0 4.142 3.358 7.5 7.5 7.5s7.5-3.358 7.5-7.5v-55.038c43.511-1.301 78.664-36.454 79.964-79.964h84.076c1.301 43.511 36.454 78.664 79.964 79.964v90.039c0 67.272-54.73 122.002-122.002 122.002s-122.003-54.73-122.003-122.002c0-4.142-3.358-7.5-7.5-7.5s-7.5 3.358-7.5 7.5c0 66.303 47.345 121.751 110.002 134.325v169.181c0 9.65 7.851 17.5 17.5 17.5h321.006c9.65 0 17.5-7.851 17.5-17.5v-183.659l8.444 7.575c10.837 8.213 21.437 7.638 31.8-1.724 8.293-9.242 7.52-23.507-1.722-31.8zm-120.522-160.9h53.001v15h-53.001zm15 65.335v-35.334h23v56.862l-23.051-20.681c.031-.279.051-.561.051-.847zm-128.123 30.765c.124-.07.249-.135.371-.212 4.976-3.196 10.75-4.885 16.697-4.885h.106c17.064 0 30.947 13.883 30.947 30.947v.106c0 17.064-13.883 30.947-30.947 30.947h-.106c-12.467 0-23.661-7.42-28.518-18.904 0-.001-.001-.002-.001-.003-.293-.693-1.095-2.849-1.275-3.193 5.733-10.827 10.056-22.509 12.726-34.803zm-145.882 274.408v-12.5h15v15h-12.5c-1.379 0-2.5-1.122-2.5-2.5zm105.002 2.5h-75.002v-144.003h75.002zm221.004-30.001h-37.501c-4.142 0-7.5 3.358-7.5 7.5s3.358 7.5 7.5 7.5h37.501v12.5c0 1.378-1.122 2.5-2.5 2.5h-203.504v-15h133.503c4.142 0 7.5-3.358 7.5-7.5s-3.358-7.5-7.5-7.5h-133.503v-116.502c0-6.893-5.608-12.5-12.5-12.5h-80.002c-6.893 0-12.5 5.608-12.5 12.5v116.502h-15v-139.534c3.956.345 7.956.532 12 .532 46.097 0 86.947-22.885 111.792-57.889 8.272 13.485 22.994 21.888 39.158 21.888h.106c25.335 0 45.948-20.612 45.948-45.948v-.106c0-25.335-20.612-45.948-45.948-45.948h-.106c-4.939 0-9.798.787-14.417 2.312.306-3.732.47-7.503.47-11.312v-27.314l8.97-8.048c2.863-2.568 7.179-2.567 10.041.001l157.993 141.75v169.616zm33.461-159.748-181.436-162.783c-8.234-7.391-20.478-7.662-29.029-.857v-17.23c13.196-5.311 28.402-2.68 39.071 6.893l181.436 162.784c3.086 2.769 3.343 7.531.575 10.617-1.64 2.024-6.999 3.319-10.617.576z"/><path d="m260.005 347.502v21c0 6.893 5.608 12.5 12.5 12.5h2.5v54.501c0 6.893 5.608 12.5 12.5 12.5h121.002c6.893 0 12.5-5.608 12.5-12.5v-54.501h2.5c6.893 0 12.5-5.608 12.5-12.5v-21c0-6.893-5.608-12.5-12.5-12.5h-151.002c-6.892 0-12.5 5.607-12.5 12.5zm146.003 85.502h-116.002v-52.001h116.002zm-131.003-83.002h146.003v16h-146.003z"/><path d="m177.504 447.504c4.142 0 7.5-3.358 7.5-7.5v-11c0-4.142-3.358-7.5-7.5-7.5s-7.5 3.358-7.5 7.5v11c-.001 4.142 3.357 7.5 7.5 7.5z"/><path d="m109.809 206.942c-3.467-2.269-8.115-1.295-10.383 2.17-2.268 3.466-1.296 8.115 2.17 10.383 10.575 6.917 17.737 8.87 27.173 9.328v9.52c0 4.142 3.358 7.5 7.5 7.5s7.5-3.358 7.5-7.5v-10.09c18.395-3.349 29.138-18.396 31.5-32.447 3.001-17.851-6.342-33.373-23.802-39.545-2.528-.894-5.119-1.833-7.698-2.815v-40.075c6.81 1.408 10.878 4.888 11.203 5.173 3.047 2.763 7.757 2.558 10.551-.471 2.808-3.045 2.617-7.79-.428-10.598-.464-.428-8.383-7.552-21.327-9.308v-8.513c0-4.142-3.358-7.5-7.5-7.5s-7.5 3.358-7.5 7.5v9.09c-1.371.286-2.771.635-4.202 1.066-11.469 3.455-20.04 13.278-22.369 25.636-2.119 11.245 1.468 22.077 9.362 28.269 4.326 3.393 9.738 6.5 17.209 9.799v50.31c-6.846-.403-11.363-1.913-18.959-6.882zm11.009-65.031c-3.47-2.722-4.956-7.967-3.878-13.688 1.003-5.325 4.64-11.779 11.83-14.008v32.675c-3.016-1.578-5.731-3.237-7.952-4.979zm25.651 28.493c15.643 5.529 14.677 18.937 14.008 22.915-1.341 7.978-7.024 16.474-16.707 19.487v-43.369c.883.319 1.775.64 2.699.967z"/></g></svg>