<svg id="_x33_0" enable-background="new 0 0 64 64" fill="#fff" height="512" viewBox="0 0 64 64" width="512" xmlns="http://www.w3.org/2000/svg"><g><path d="m61 57v-12c0-1.103-.897-2-2-2h-2v-12.385c0-3.779-2.576-6.99-6.265-7.81l-1.827-.406 2.253-2.482-1.794-1.795.093-.088 2.54-.034v-3c1.103 0 2-.897 2-2v-2c0-1.103-.897-2-2-2h-.156c-.966-4.614-5.058-8-9.844-8-4.769 0-8.851 3.362-9.842 8h-.158c-1.103 0-2 .897-2 2v2c0 1.103.897 2 2 2v3l2.604.059-.013.098.002.006-1.756 1.756 2.26 2.48-1.833.408c-3.688.818-6.264 4.029-6.264 7.808v10.385c0 .692.123 1.364.349 2h-2.349v-12c0-1.103-.897-2-2-2v-12c0-1.103-.897-2-2-2h-12c-1.103 0-2 .897-2 2v12c-1.103 0-2 .897-2 2v12c-1.103 0-2 .897-2 2v12c-1.103 0-2 .897-2 2v2c0 1.103.897 2 2 2h58c1.103 0 2-.897 2-2v-2c0-1.103-.897-2-2-2zm-6-26.385v12.385h-2c0-1.474-.81-2.75-2-3.444v-2.556c0-1.103-.897-2-2-2h-3.544l4.01-10.427.835.186c2.767.613 4.699 3.022 4.699 5.856zm-18.427-6.496c.621-.138 1.193-.479 1.614-.96l.725-.775.074.084.014 2.532h.602l-1.988 2.008-1.105-2.874zm10.854 0 .065.015-1.105 2.874-1.989-2.008h.602v-2.526l.114-.118.699.805c.42.48.993.82 1.614.958zm-6.74 10.881-.18-.467 1.287-5.533h.412l1.286 5.533-.179.467zm1.313-9.578.778.785-.396.793h-.764l-.396-.792zm2.772 5.785-.716-3.081.208-.417 1.335 1.348zm-5.036-3.499.208.417-.716 3.081-.827-2.15zm9.264 9.292v2h-10v-2zm0 4c1.103 0 2 .897 2 2h-4v-2zm-7-38c3.69 0 6.862 2.515 7.785 6h-15.571c.924-3.484 4.095-6 7.786-6zm-10 8h20l.002 2h-20.002zm12 4c0 1.103-.897 2-2 2s-2-.897-2-2zm-9.474 1h-.526v-1h4c0 2.206 1.794 4 4 4s4-1.794 4-4h4v1h-.526c-.848 0-1.604.509-1.931 1.306-.324.782-.147 1.674.449 2.271l.407.407-1.378 1.519-.445-.51c-.598-.597-1.487-.774-2.281-.444-.786.321-1.295 1.077-1.295 1.925v.526h-2v-.526c0-.848-.509-1.604-1.306-1.931-.781-.325-1.674-.147-2.318.5l-.394.453-1.381-1.514.406-.406c.597-.597.773-1.488.444-2.281-.321-.786-1.077-1.295-1.925-1.295zm-5.526 25v-10.385c0-2.834 1.932-5.243 4.698-5.856l.835-.186 4.03 10.478c-.892.201-1.563.997-1.563 1.949v2h-2v-7h-2v7.382l-1.447.724.895 1.789 1.788-.895h10.764v2h-15.453c-.353-.606-.547-1.287-.547-2zm-16-24h4v4h-4zm-4 0h2v6h8v-6h2v12h-12zm4 14h4v4h-4zm-6 0h4v6h8v-6h4v12h-16zm-2 14h54v12h-54zm-2 16v-2h58l.002 2z"/><path d="m12 49c-1.654 0-3 1.346-3 3s1.346 3 3 3 3-1.346 3-3-1.346-3-3-3zm0 4c-.552 0-1-.448-1-1s.448-1 1-1 1 .448 1 1-.448 1-1 1z"/><path d="m20 49c-1.654 0-3 1.346-3 3s1.346 3 3 3 3-1.346 3-3-1.346-3-3-3zm0 4c-.552 0-1-.448-1-1s.448-1 1-1 1 .448 1 1-.448 1-1 1z"/><path d="m28 49c-1.654 0-3 1.346-3 3s1.346 3 3 3 3-1.346 3-3-1.346-3-3-3zm0 4c-.552 0-1-.448-1-1s.448-1 1-1 1 .448 1 1-.448 1-1 1z"/><path d="m36 49c-1.654 0-3 1.346-3 3s1.346 3 3 3 3-1.346 3-3-1.346-3-3-3zm0 4c-.552 0-1-.448-1-1s.448-1 1-1 1 .448 1 1-.448 1-1 1z"/><path d="m44 49c-1.654 0-3 1.346-3 3s1.346 3 3 3 3-1.346 3-3-1.346-3-3-3zm0 4c-.552 0-1-.448-1-1s.448-1 1-1 1 .448 1 1-.448 1-1 1z"/></g></svg>